<?xml version="1.0" encoding="UTF-8"?>
<svg width="26px" height="26px" viewBox="0 0 26 26" version="1.1" xmlns="http://www.w3.org/2000/svg" xmlns:xlink="http://www.w3.org/1999/xlink">
    <title>centos2</title>
    <g id="页面-1" stroke="none" stroke-width="1" fill="none" fill-rule="evenodd">
        <g id="算力市场" transform="translate(-1308.000000, -674.000000)" fill="#98A3B7" fill-rule="nonzero">
            <g id="编组-3" transform="translate(360.000000, 584.000000)">
                <g id="编组-18备份-5" transform="translate(904.000000, 80.000000)">
                    <g id="fc5a0c085916eb3a5852aab6ac32e866备份" transform="translate(44.000000, 10.000000)">
                        <path d="M13.6964167,3.059678 C13.6359787,3.059678 13.586984,3.10706806 13.586984,3.16552666 C13.6086004,5.46936844 13.6288657,7.73662057 13.6140044,10.0117133 C13.6113024,10.4285741 13.4005431,10.6520324 13.0979145,10.8872516 C13.0378483,10.9340403 12.9525184,10.9351192 12.8912083,10.8898652 C12.5669633,10.6481121 12.3859265,10.435108 12.3737673,9.99341851 C12.3530516,9.29473024 12.3467469,8.61085208 12.354853,7.94178402 C12.3719659,6.38759466 12.3809727,4.80378511 12.3818734,3.19035536 C12.3818734,3.11890596 12.321991,3.06098477 12.2481223,3.06098477 L9.9270685,3.05706445 C9.82258955,3.05706445 9.80727798,3.02178157 9.88113379,2.9512158 L12.9101226,0.0292701168 C12.9514381,-0.00975670559 13.0171096,-0.00975670559 13.0573838,0.0292701168 L16.0796175,2.93422774 C16.1606788,3.01263415 16.1435658,3.05183736 16.0282787,3.05183736 L13.6964167,3.059678 Z" id="路径"></path>
                        <g id="编组-21" transform="translate(3.934101, 3.901103)">
                            <path d="M1.81143345,2.70394906 C1.78555219,2.70153168 1.75963986,2.71053716 1.74039724,2.72863673 L0.114457346,4.30604863 C0.0951040498,4.32510658 0.0659816754,4.33066504 0.0408332659,4.32010091 C0.0156848565,4.30953679 -0.000462943662,4.28496164 0,4.25797265 L0.00395657641,0.0792604002 C0.00395657641,0.0264201334 0.0307047786,0 0.084201183,0 C1.47423071,0.00346493553 2.86864518,0.00779610493 4.26744461,0.0129935082 C4.30252422,0.0129935082 4.33321887,0.0238214317 4.35952858,0.0454772788 C4.37191855,0.0549179429 4.37956425,0.0692162443 4.38056741,0.0848222145 C4.38157057,0.100428185 4.37583711,0.115878213 4.36479052,0.127336381 L2.7769997,1.70994568 C2.75145399,1.7350618 2.73709262,1.76919643 2.73709262,1.80479829 C2.73709262,1.84040016 2.75145399,1.87453479 2.7769997,1.8996509 C4.44415814,3.55155891 6.08719934,5.18354355 7.70612332,6.7956048 C7.92580937,7.01389574 7.87187447,7.40370099 7.83109443,7.67136726 C7.82232453,7.72593999 7.79031438,7.75712441 7.735064,7.76492051 C7.35094227,7.82209195 7.05890453,7.85327637 6.75371192,7.55052763 C5.06813669,5.87176637 3.4592981,4.27443109 1.92719616,2.7585218 C1.89474752,2.72647114 1.85615995,2.70828023 1.81143345,2.70394906 Z" id="路径"></path>
                            <path d="M7.78056339,6.22836222 L3.16152879,1.89323833 C3.14253197,1.87530832 3.14253197,1.84630365 3.16152879,1.82837364 L5.07092132,0.0135134785 C5.0800577,0.00489010101 5.09245923,0 5.10540245,0 L7.81935466,0.0135134785 C7.84633282,0.0135134785 7.86820293,0.0340841258 7.86820293,0.0594593052 L7.86389279,6.19592987 C7.8638446,6.21447831 7.8519437,6.23118026 7.83372189,6.23827231 C7.81550008,6.24536436 7.79453174,6.24145533 7.78056339,6.22836222 Z" id="路径"></path>
                            <path d="M0,7.73126167 L0.00274195506,5.0680142 C0.00263357142,5.0488086 0.0100536413,5.03037814 0.023306618,5.01693433 L1.84807771,3.14116812 C1.8611308,3.12792334 1.87875477,3.12062298 1.89703304,3.12088237 C1.9153113,3.12115585 1.93272962,3.12896701 1.94541711,3.14258701 L6.27496415,7.67308738 C6.2943366,7.69354088 6.29992541,7.72404395 6.28913263,7.75041738 C6.27833985,7.7767908 6.25328274,7.79386086 6.22560895,7.79369262 L0.0685488764,7.80220593 C0.0306903773,7.80220593 0,7.77044311 0,7.73126167 Z" id="路径"></path>
                        </g>
                        <g id="编组-21备份-3" transform="translate(18.096867, 7.802206) scale(-1, 1) translate(-18.096867, -7.802206) translate(14.162765, 3.901103)">
                            <path d="M1.81143345,2.70394906 C1.78555219,2.70153168 1.75963986,2.71053716 1.74039724,2.72863673 L0.114457346,4.30604863 C0.0951040498,4.32510658 0.0659816754,4.33066504 0.0408332659,4.32010091 C0.0156848565,4.30953679 -0.000462943662,4.28496164 0,4.25797265 L0.00395657641,0.0792604002 C0.00395657641,0.0264201334 0.0307047786,0 0.084201183,0 C1.47423071,0.00346493553 2.86864518,0.00779610493 4.26744461,0.0129935082 C4.30252422,0.0129935082 4.33321887,0.0238214317 4.35952858,0.0454772788 C4.37191855,0.0549179429 4.37956425,0.0692162443 4.38056741,0.0848222145 C4.38157057,0.100428185 4.37583711,0.115878213 4.36479052,0.127336381 L2.7769997,1.70994568 C2.75145399,1.7350618 2.73709262,1.76919643 2.73709262,1.80479829 C2.73709262,1.84040016 2.75145399,1.87453479 2.7769997,1.8996509 C4.44415814,3.55155891 6.08719934,5.18354355 7.70612332,6.7956048 C7.92580937,7.01389574 7.87187447,7.40370099 7.83109443,7.67136726 C7.82232453,7.72593999 7.79031438,7.75712441 7.735064,7.76492051 C7.35094227,7.82209195 7.05890453,7.85327637 6.75371192,7.55052763 C5.06813669,5.87176637 3.4592981,4.27443109 1.92719616,2.7585218 C1.89474752,2.72647114 1.85615995,2.70828023 1.81143345,2.70394906 Z" id="路径"></path>
                            <path d="M7.78056339,6.22836222 L3.16152879,1.89323833 C3.14253197,1.87530832 3.14253197,1.84630365 3.16152879,1.82837364 L5.07092132,0.0135134785 C5.0800577,0.00489010101 5.09245923,0 5.10540245,0 L7.81935466,0.0135134785 C7.84633282,0.0135134785 7.86820293,0.0340841258 7.86820293,0.0594593052 L7.86389279,6.19592987 C7.8638446,6.21447831 7.8519437,6.23118026 7.83372189,6.23827231 C7.81550008,6.24536436 7.79453174,6.24145533 7.78056339,6.22836222 Z" id="路径"></path>
                            <path d="M0,7.73126167 L0.00274195506,5.0680142 C0.00263357142,5.0488086 0.0100536413,5.03037814 0.023306618,5.01693433 L1.84807771,3.14116812 C1.8611308,3.12792334 1.87875477,3.12062298 1.89703304,3.12088237 C1.9153113,3.12115585 1.93272962,3.12896701 1.94541711,3.14258701 L6.27496415,7.67308738 C6.2943366,7.69354088 6.29992541,7.72404395 6.28913263,7.75041738 C6.27833985,7.7767908 6.25328274,7.79386086 6.22560895,7.79369262 L0.0685488764,7.80220593 C0.0306903773,7.80220593 0,7.77044311 0,7.73126167 Z" id="路径"></path>
                        </g>
                        <g id="编组-21备份" transform="translate(7.868203, 17.945074) scale(1, -1) translate(-7.868203, -17.945074) translate(3.934101, 14.043971)">
                            <path d="M1.81143345,2.70394906 C1.78555219,2.70153168 1.75963986,2.71053716 1.74039724,2.72863673 L0.114457346,4.30604863 C0.0951040498,4.32510658 0.0659816754,4.33066504 0.0408332659,4.32010091 C0.0156848565,4.30953679 -0.000462943662,4.28496164 0,4.25797265 L0.00395657641,0.0792604002 C0.00395657641,0.0264201334 0.0307047786,0 0.084201183,0 C1.47423071,0.00346493553 2.86864518,0.00779610493 4.26744461,0.0129935082 C4.30252422,0.0129935082 4.33321887,0.0238214317 4.35952858,0.0454772788 C4.37191855,0.0549179429 4.37956425,0.0692162443 4.38056741,0.0848222145 C4.38157057,0.100428185 4.37583711,0.115878213 4.36479052,0.127336381 L2.7769997,1.70994568 C2.75145399,1.7350618 2.73709262,1.76919643 2.73709262,1.80479829 C2.73709262,1.84040016 2.75145399,1.87453479 2.7769997,1.8996509 C4.44415814,3.55155891 6.08719934,5.18354355 7.70612332,6.7956048 C7.92580937,7.01389574 7.87187447,7.40370099 7.83109443,7.67136726 C7.82232453,7.72593999 7.79031438,7.75712441 7.735064,7.76492051 C7.35094227,7.82209195 7.05890453,7.85327637 6.75371192,7.55052763 C5.06813669,5.87176637 3.4592981,4.27443109 1.92719616,2.7585218 C1.89474752,2.72647114 1.85615995,2.70828023 1.81143345,2.70394906 Z" id="路径"></path>
                            <path d="M7.78056339,6.22836222 L3.16152879,1.89323833 C3.14253197,1.87530832 3.14253197,1.84630365 3.16152879,1.82837364 L5.07092132,0.0135134785 C5.0800577,0.00489010101 5.09245923,0 5.10540245,0 L7.81935466,0.0135134785 C7.84633282,0.0135134785 7.86820293,0.0340841258 7.86820293,0.0594593052 L7.86389279,6.19592987 C7.8638446,6.21447831 7.8519437,6.23118026 7.83372189,6.23827231 C7.81550008,6.24536436 7.79453174,6.24145533 7.78056339,6.22836222 Z" id="路径"></path>
                            <path d="M0,7.73126167 L0.00274195506,5.0680142 C0.00263357142,5.0488086 0.0100536413,5.03037814 0.023306618,5.01693433 L1.84807771,3.14116812 C1.8611308,3.12792334 1.87875477,3.12062298 1.89703304,3.12088237 C1.9153113,3.12115585 1.93272962,3.12896701 1.94541711,3.14258701 L6.27496415,7.67308738 C6.2943366,7.69354088 6.29992541,7.72404395 6.28913263,7.75041738 C6.27833985,7.7767908 6.25328274,7.79386086 6.22560895,7.79369262 L0.0685488764,7.80220593 C0.0306903773,7.80220593 0,7.77044311 0,7.73126167 Z" id="路径"></path>
                        </g>
                        <g id="编组-21备份-2" transform="translate(18.096867, 17.945074) scale(-1, -1) translate(-18.096867, -17.945074) translate(14.162765, 14.043971)">
                            <path d="M1.81143345,2.70394906 C1.78555219,2.70153168 1.75963986,2.71053716 1.74039724,2.72863673 L0.114457346,4.30604863 C0.0951040498,4.32510658 0.0659816754,4.33066504 0.0408332659,4.32010091 C0.0156848565,4.30953679 -0.000462943662,4.28496164 0,4.25797265 L0.00395657641,0.0792604002 C0.00395657641,0.0264201334 0.0307047786,0 0.084201183,0 C1.47423071,0.00346493553 2.86864518,0.00779610493 4.26744461,0.0129935082 C4.30252422,0.0129935082 4.33321887,0.0238214317 4.35952858,0.0454772788 C4.37191855,0.0549179429 4.37956425,0.0692162443 4.38056741,0.0848222145 C4.38157057,0.100428185 4.37583711,0.115878213 4.36479052,0.127336381 L2.7769997,1.70994568 C2.75145399,1.7350618 2.73709262,1.76919643 2.73709262,1.80479829 C2.73709262,1.84040016 2.75145399,1.87453479 2.7769997,1.8996509 C4.44415814,3.55155891 6.08719934,5.18354355 7.70612332,6.7956048 C7.92580937,7.01389574 7.87187447,7.40370099 7.83109443,7.67136726 C7.82232453,7.72593999 7.79031438,7.75712441 7.735064,7.76492051 C7.35094227,7.82209195 7.05890453,7.85327637 6.75371192,7.55052763 C5.06813669,5.87176637 3.4592981,4.27443109 1.92719616,2.7585218 C1.89474752,2.72647114 1.85615995,2.70828023 1.81143345,2.70394906 Z" id="路径"></path>
                            <path d="M7.78056339,6.22836222 L3.16152879,1.89323833 C3.14253197,1.87530832 3.14253197,1.84630365 3.16152879,1.82837364 L5.07092132,0.0135134785 C5.0800577,0.00489010101 5.09245923,0 5.10540245,0 L7.81935466,0.0135134785 C7.84633282,0.0135134785 7.86820293,0.0340841258 7.86820293,0.0594593052 L7.86389279,6.19592987 C7.8638446,6.21447831 7.8519437,6.23118026 7.83372189,6.23827231 C7.81550008,6.24536436 7.79453174,6.24145533 7.78056339,6.22836222 Z" id="路径"></path>
                            <path d="M0,7.73126167 L0.00274195506,5.0680142 C0.00263357142,5.0488086 0.0100536413,5.03037814 0.023306618,5.01693433 L1.84807771,3.14116812 C1.8611308,3.12792334 1.87875477,3.12062298 1.89703304,3.12088237 C1.9153113,3.12115585 1.93272962,3.12896701 1.94541711,3.14258701 L6.27496415,7.67308738 C6.2943366,7.69354088 6.29992541,7.72404395 6.28913263,7.75041738 C6.27833985,7.7767908 6.25328274,7.79386086 6.22560895,7.79369262 L0.0685488764,7.80220593 C0.0306903773,7.80220593 0,7.77044311 0,7.73126167 Z" id="路径"></path>
                        </g>
                        <g id="编组-20" transform="translate(14.949586, 9.752757)">
                            <path d="M11.0154841,3.03979915 L0.00913699777,3.12088237 C-0.0349642448,2.91495673 0.0805810107,2.72747859 0.355772764,2.55844795 C0.511891163,2.46234932 0.671537661,2.4143 0.834712258,2.4143 C3.20294898,2.41344198 5.52091029,2.41601605 7.78859619,2.42202221 C7.8459278,2.42202221 7.87459361,2.39456546 7.87459361,2.33965195 L7.8706245,0.114367936 C7.8706245,-0.0160516401 7.91737181,-0.0349281577 8.01086645,0.0577383832 L11.0154841,3.03979915 Z" id="路径"></path>
                            <path d="M11.0154841,3.12088237 L8.02028936,6.17374101 C7.91435851,6.28280386 7.86183447,6.26072089 7.86271723,6.10749208 L7.8693379,3.79553979 C7.8693379,3.75073783 7.83376776,3.71441866 7.78988977,3.71441866 C5.41174222,3.71441866 3.02609124,3.71171462 0.632936819,3.70630655 C0.479337089,3.7054052 0.268358149,3.53865621 0,3.20605956 L11.0154841,3.12088237 Z" id="路径"></path>
                        </g>
                        <g id="编组-20备份" transform="translate(5.507742, 12.873640) scale(-1, 1) translate(-5.507742, -12.873640) translate(0.000000, 9.752757)">
                            <path d="M11.0154841,3.03979915 L0.00913699777,3.12088237 C-0.0349642448,2.91495673 0.0805810107,2.72747859 0.355772764,2.55844795 C0.511891163,2.46234932 0.671537661,2.4143 0.834712258,2.4143 C3.20294898,2.41344198 5.52091029,2.41601605 7.78859619,2.42202221 C7.8459278,2.42202221 7.87459361,2.39456546 7.87459361,2.33965195 L7.8706245,0.114367936 C7.8706245,-0.0160516401 7.91737181,-0.0349281577 8.01086645,0.0577383832 L11.0154841,3.03979915 Z" id="路径"></path>
                            <path d="M11.0154841,3.12088237 L8.02028936,6.17374101 C7.91435851,6.28280386 7.86183447,6.26072089 7.86271723,6.10749208 L7.8693379,3.79553979 C7.8693379,3.75073783 7.83376776,3.71441866 7.78988977,3.71441866 C5.41174222,3.71441866 3.02609124,3.71171462 0.632936819,3.70630655 C0.479337089,3.7054052 0.268358149,3.53865621 0,3.20605956 L11.0154841,3.12088237 Z" id="路径"></path>
                        </g>
                        <path d="M13.5984066,22.6022073 C13.5991473,22.6542626 13.6431878,22.6960861 13.6972568,22.6960812 L15.9911215,22.6856508 C16.1491012,22.6856508 16.172121,22.7391068 16.0601812,22.8460188 L13.0594703,25.7183014 C13.0405402,25.7368516 13.0146138,25.7472796 12.987424,25.7472796 C12.9602341,25.7472796 12.9340208,25.7368516 12.9145804,25.7183014 L9.90032839,22.838196 C9.79561044,22.7373684 9.81727622,22.6873892 9.96532574,22.6882584 L12.2646069,22.6960812 C12.3244353,22.6960812 12.3729358,22.6493826 12.3729358,22.5917768 C12.3855742,20.1362773 12.3837687,17.8133313 12.3675194,15.6229388 C12.3648111,15.2709114 12.6654239,15.0909863 12.8915605,14.8615166 C12.9144732,14.8379189 12.9464936,14.8244408 12.980227,14.8241913 C13.0139604,14.8239486 13.0464899,14.836956 13.0703032,14.8602128 C13.2937316,15.0792521 13.5997607,15.2748228 13.5970525,15.6151159 C13.5844142,17.893298 13.5848655,20.2223284 13.5984066,22.6022073 Z" id="路径"></path>
                    </g>
                </g>
            </g>
        </g>
    </g>
</svg>