<?xml version="1.0" encoding="UTF-8"?>
<svg width="26px" height="26px" viewBox="0 0 26 26" version="1.1" xmlns="http://www.w3.org/2000/svg" xmlns:xlink="http://www.w3.org/1999/xlink">
    <title>rocky linux1</title>
    <g id="页面-1" stroke="none" stroke-width="1" fill="none" fill-rule="evenodd">
        <g id="算力市场" transform="translate(-1625.000000, -600.000000)" fill="#98A3B7">
            <g id="编组-18备份-8" transform="translate(1581.000000, 590.000000)">
                <g id="a5cea855cf82d94f4195921003922134" transform="translate(44.000000, 9.995707)">
                    <g id="c97eba1d21eac79a3536a866fb94c3fa" transform="translate(0.072307, 0.000000)">
                        <path d="M10.792742,24.7754895 C14.8665004,25.4249326 18.4157137,24.38626 21.4402253,21.6591599 C22.3485495,20.704784 23.1314527,19.6659555 23.7889348,18.5428303 C24.3114444,17.3983582 24.676747,16.2038691 24.8849993,14.9590512 C25.0193455,13.7698598 25.0714868,12.5752148 25.0415799,11.3752721 C24.7628664,10.4090541 24.502003,9.42211248 24.2586767,8.41475893 C23.68246,7.29381516 23.0038395,6.22912113 22.2231285,5.22052105 C18.9410707,4.74922813 15.9639264,5.4300846 13.2918354,7.26322959 L12.9848709,7.47986004 C12.8348667,7.5504449 12.7042784,7.65421868 12.5934194,7.791493 C12.5799534,9.16828744 12.0580702,10.3110455 11.027613,11.2194556 C10.9499043,11.410175 10.9580145,11.5901335 11.0518451,11.7591348 L11.1059033,11.8427215 C11.3619127,12.0476202 11.622776,12.0476202 11.8888065,11.8427215 C12.3856369,11.2685378 12.8032374,10.6452719 13.1414516,9.97292375 C13.4002794,9.09879328 13.6351503,8.21578128 13.8460644,7.32404355 C14.1584428,6.97392392 14.5498944,6.81810744 15.0204192,6.85659411 C15.1120189,7.89180765 14.9943485,8.87880846 14.6674082,9.81759653 L14.5506773,10.1287402 C14.3106392,11.5681729 13.5798774,12.6849096 12.3585484,13.4787946 C11.4975115,13.5842824 11.0277696,13.1947411 10.9493227,12.310171 C10.5173167,10.3246015 10.9870586,8.55857754 12.3585484,7.01241059 C13.1935929,6.0775117 14.0809354,5.19449969 15.0204192,4.36353039 C15.7767037,3.48114166 16.6117482,2.67603789 17.5257094,1.94837492 C17.3649011,1.86844107 17.2083204,1.79053283 17.0559675,1.7146502 C15.3943785,1.1606447 13.7005219,0.986720908 11.9745232,1.19287883 L11.5756452,1.24720075 C11.1498242,2.05553771 10.7497215,2.87114934 10.3754693,3.69403566 L10.0098389,4.51934688 C9.81682713,5.18426774 9.63648104,5.84447949 9.46884697,6.50002829 L9.22693569,7.47986004 L9.22693569,10.9078226 C9.34139613,11.6646233 9.55011812,12.3918188 9.85325823,13.0892534 C10.4387132,14.3761417 11.430495,14.9733863 12.8282903,14.8811429 C14.219979,14.3532367 15.1594628,13.3923164 15.6467418,11.998538 C16.0039022,10.3066827 16.2126242,8.59270135 16.2730643,6.85659411 C16.5033944,6.99386843 16.6338261,7.2015718 16.6645159,7.47986004 C17.1073259,9.16189896 17.1334749,10.8239934 16.7428062,12.4659875 C16.185066,15.0205987 14.5931107,16.3709043 11.9670968,16.517216 C9.53853115,16.1021209 7.68555591,14.855589 6.40848424,12.7776204 C5.97658787,12.2824356 5.6634266,11.7110566 5.46900043,11.0636391 C5.00586622,10.4106122 4.69270495,9.68341672 4.52951661,8.88220837 C4.25133546,8.41397985 4.09475482,7.89464351 4.05977471,7.32404355 C3.8243244,6.83181929 3.61555544,6.31232714 3.43345216,5.76587873 C3.18386263,6.11646582 2.93828156,6.46414433 2.69671823,6.80896043 L2.33738771,7.32404355 C1.67384595,8.733092 1.20410404,10.1873272 0.928161989,11.6869051 C0.90107354,13.0487411 1.00546585,14.3992026 1.24132326,15.7381336 C1.50788614,16.5597539 1.82104741,17.3647018 2.18080708,18.1532891 C5.13548367,19.1057952 8.1626571,19.4174282 11.262484,19.088188 C13.2485527,18.8003949 15.0230811,18.0473339 16.5862256,16.828849 C17.6721123,15.7582339 18.2984348,14.4598152 18.4651932,12.9334369 C18.4847658,12.0448155 18.4326244,11.1618035 18.3086126,10.2845567 C17.9033819,9.21955106 17.4597889,8.18087839 16.9776772,7.16822707 C18.1849861,8.20006779 19.1005103,9.4301292 19.7244961,10.8582887 L19.8744189,11.2194556 C20.0860637,11.7157311 20.2300744,12.2312672 20.306451,12.766064 L20.3441608,13.0892534 C20.4118037,14.1681267 20.307521,15.2069552 20.0309996,16.205583 C19.8205552,17.4669774 19.3152574,18.5819301 18.51486,19.5503185 L18.3086126,19.7893621 C18.1820507,20.1378123 17.9722007,20.4165457 17.6791611,20.6255624 L17.5257094,20.724261 C16.9974063,21.4061139 16.3710838,21.9773372 15.6467418,22.4382423 C14.1382439,23.4244048 12.5201396,24.2034872 10.792742,24.7754895 Z M0.458420082,16.205583 C0.225255857,15.6234527 0.120863548,15.0001867 0.145258811,14.3357852 C-0.298819531,11.4795133 0.275314687,8.83063312 1.8676458,6.38914466 C2.21996789,5.6370185 2.6897098,4.96186568 3.27687153,4.36353039 C4.18435026,3.35602102 5.22821073,2.52489591 6.40848424,1.87046668 C7.9201137,0.892406622 9.59035934,0.295162047 11.4190646,0.0785771365 C13.7756032,-0.169015254 16.02003,0.168483247 18.1520319,1.09138427 C19.7286423,1.71932469 21.0857267,2.65422359 22.2231285,3.89608095 C23.4178387,4.92244411 24.3050246,6.16897597 24.8849993,7.63567652 C25.4031768,8.63553357 25.7493862,9.69054581 25.9237376,10.8006038 L25.9810637,11.2194556 C26.0236015,12.3253631 25.9944818,13.4113607 25.8936142,14.4775386 L25.8244831,15.1148677 C25.7161989,16.1022594 25.4567312,17.0327723 25.0460801,17.9062971 L24.8849993,18.2311973 C24.2073392,19.9721245 23.161947,21.445521 21.7486954,22.6513868 L21.4402253,22.9056918 C16.2902882,26.7827175 10.9665465,27.0164422 5.46900043,23.6068659 C4.81635668,23.1391049 4.24222246,22.5937472 3.74661343,21.9707929 C3.07707464,21.468908 2.5551444,20.8456421 2.18080708,20.1009951 C1.33653995,18.9345529 0.762405728,17.6361342 0.458420082,16.205583 Z" id="形状结合"></path>
                    </g>
                </g>
            </g>
        </g>
    </g>
</svg>