<?xml version="1.0" encoding="UTF-8"?>
<svg width="1422px" height="1254px" viewBox="0 0 1422 1254" version="1.1" xmlns="http://www.w3.org/2000/svg" xmlns:xlink="http://www.w3.org/1999/xlink">
    <title>编组</title>
    <g id="页面-1" stroke="none" stroke-width="1" fill="none" fill-rule="evenodd">
        <g id="编组" transform="translate(0.239500, 0.096306)">
            <path d="M762.368707,0 L770.265983,149.725202 L913.633183,193.6097 L773.676446,247.388087 L776.24271,397.299452 L681.847414,280.811121 L540.066253,329.576943 L591.566873,250.21247 C529.57165,286.204175 457.570974,362.944177 457.570974,469.233082 C457.570974,568.017069 507.990902,654.044281 591.016302,693.821216 C620.739524,708.061419 662.723898,716.238443 696.7605,717.140615 L694.549208,717.188541 L690.388086,717.223352 C544.652124,728.986113 431.393513,603.875455 431.393513,460.370385 C431.393513,318.389243 551.941008,223.489552 653.467631,204.115136 C654.668616,203.859964 655.869122,203.614746 657.068494,203.37947 L612.457247,272.128256 L691.488373,244.945394 L744.105847,309.877885 L742.675369,226.314851 L820.689531,196.337903 L740.774322,171.87597 L736.372252,88.4167069 L688.412414,156.861435 L607.677623,135.257721 L637.574969,174.960626 C627.149417,176.946539 616.611715,179.659559 606.072378,183.068437 L605.988323,182.950937 C506.07535,215.605938 390.306579,316.988974 390.306579,463.382395 C390.306579,622.911931 525.037486,753.735633 683.585858,757.805303 L680.87038,757.862297 L675.7605,757.903694 C505.104512,757.903694 360.138813,624.894174 360.138813,454.238186 C360.138813,299.314223 476.916643,185.136695 586.127015,156.577387 L531.491647,84.0323776 L676.329169,122.789255 L762.368707,0 Z M984.759813,448.943 L984.7605,448.903694 C984.7605,451.521537 984.727946,454.131777 984.663221,456.73403 L984.759813,448.943 Z" id="形状结合" fill="#E51E27"></path>
            <path d="M572.769106,417.812118 L580.666381,567.537321 L724.033582,611.421818 L584.076844,665.200205 L586.643109,815.111571 L492.247813,698.623239 L350.466651,747.389061 L401.967272,668.024589 C339.972048,704.016293 267.971373,780.756295 267.971373,887.0452 C267.971373,985.829187 318.3913,1071.8564 401.416701,1111.63333 C431.139922,1125.87354 473.124297,1134.05056 507.160899,1134.95273 L504.949607,1135.00066 L500.788484,1135.03547 C355.052523,1146.79823 241.793912,1021.68757 241.793912,878.182504 C241.793912,736.201362 362.341407,641.301671 463.86803,621.927254 C465.069015,621.672082 466.269521,621.426865 467.468893,621.191588 L422.857646,689.940375 L501.888772,662.757512 L554.506245,727.690003 L553.075768,644.126969 L631.08993,614.150022 L551.17472,589.688089 L546.772651,506.228825 L498.812812,574.673553 L418.078022,553.06984 L447.975368,592.772744 C437.549816,594.758658 427.012113,597.471678 416.472776,600.880555 L416.388722,600.763056 C316.475749,633.418056 200.706978,734.801093 200.706978,881.194514 C200.706978,1040.72405 335.437885,1171.54775 493.986257,1175.61742 L491.270779,1175.67442 L486.160899,1175.71581 C315.504911,1175.71581 170.539212,1042.70629 170.539212,872.050305 C170.539212,717.126341 287.317042,602.948813 396.527414,574.389506 L341.892046,501.844496 L486.729568,540.601373 L572.769106,417.812118 Z M795.160212,866.755118 L795.160899,866.715813 C795.160899,869.333656 795.128345,871.943895 795.063619,874.546148 L795.160212,866.755118 Z" id="形状结合备份-2" fill="#FDA71B" transform="translate(482.850055, 796.763966) rotate(-119.000000) translate(-482.850055, -796.763966) "></path>
            <path d="M1027.26617,370.206406 L1035.16344,519.931608 L1178.53064,563.816105 L1038.57391,617.594492 L1041.14017,767.505858 L946.744875,651.017527 L804.963714,699.783348 L856.464334,620.418876 C794.469111,656.41058 722.468435,733.150583 722.468435,839.439487 C722.468435,938.223474 772.888363,1024.25069 855.913764,1064.02762 C885.636985,1078.26782 927.62136,1086.44485 961.657961,1087.34702 L959.446669,1087.39495 L955.285547,1087.42976 C809.549585,1099.19252 696.290974,974.081861 696.290974,830.576791 C696.290974,688.595649 816.838469,593.695958 918.365092,574.321541 C919.566077,574.06637 920.766583,573.821152 921.965955,573.585875 L877.354708,642.334662 L956.385834,615.1518 L1009.00331,680.08429 L1007.57283,596.521257 L1085.58699,566.544309 L1005.67178,542.082376 L1001.26971,458.623113 L953.309875,527.067841 L872.575084,505.464127 L902.47243,545.167031 C892.046878,547.152945 881.509176,549.865965 870.969839,553.274843 L870.885784,553.157343 C770.972811,585.812343 655.20404,687.19538 655.20404,833.588801 C655.20404,993.118337 789.934947,1123.94204 948.483319,1128.01171 L945.767841,1128.0687 L940.657961,1128.1101 C770.001973,1128.1101 625.036274,995.10058 625.036274,824.444592 C625.036274,669.520628 741.814104,555.343101 851.024476,526.783793 L796.389108,454.238783 L941.22663,492.99566 L1027.26617,370.206406 Z M1249.65727,819.149406 L1249.65796,819.1101 C1249.65796,821.727943 1249.62541,824.338182 1249.56068,826.940435 L1249.65727,819.149406 Z" id="形状结合备份" fill="#1395F1" transform="translate(937.347118, 749.158253) rotate(-240.000000) translate(-937.347118, -749.158253) "></path>
        </g>
    </g>
</svg>