<?xml version="1.0" encoding="UTF-8"?>
<svg width="26px" height="26px" viewBox="0 0 26 26" version="1.1" xmlns="http://www.w3.org/2000/svg" xmlns:xlink="http://www.w3.org/1999/xlink">
    <title>ubuntu1</title>
    <g id="页面-1" stroke="none" stroke-width="1" fill="none" fill-rule="evenodd">
        <g id="算力市场" transform="translate(-538.000000, -674.000000)" fill="#FFFFFF" fill-rule="nonzero">
            <g id="编组-3" transform="translate(360.000000, 584.000000)">
                <g id="编组-18" transform="translate(134.000000, 80.000000)">
                    <g id="形状" transform="translate(44.000000, 10.000000)">
                        <path d="M26,13 C26,16.4478144 24.6303611,19.7544152 22.1923882,22.1923882 C19.7544152,24.6303611 16.4478144,26 13,26 C9.55218563,26 6.24558476,24.6303611 3.80761184,22.1923882 C1.36963892,19.7544152 0,16.4478144 0,13 C0,9.55218563 1.36963892,6.24558476 3.80761184,3.80761184 C6.24558476,1.36963892 9.55218563,0 13,0 C20.1797017,0 26,5.82029825 26,13 L26,13 Z M19.1476398,5.3502627 C19.1476398,4.39142907 18.3703516,3.61414084 17.4115179,3.61414084 C16.4526843,3.61414084 15.6753961,4.39142907 15.6753961,5.3502627 C15.6753961,5.81071084 15.8583084,6.25230023 16.1838944,6.57788624 C16.5094804,6.90347224 16.9510698,7.08638456 17.4115179,7.08638456 C17.8719661,7.08638456 18.3135555,6.90347224 18.6391415,6.57788624 C18.9647275,6.25230023 19.1476398,5.81071084 19.1476398,5.3502627 L19.1476398,5.3502627 Z M20.5247831,12.4832403 C20.367002,10.5933966 19.6266308,8.98064052 18.3036696,7.6449721 C18.2895505,7.63050001 18.272784,7.62661725 18.2533703,7.63332383 C16.8142793,8.13949416 15.2883558,7.27646316 15.0156804,5.76748259 C15.0120716,5.74777495 14.9974391,5.73190589 14.9780882,5.72671364 C13.143662,5.25337026 11.3771841,5.42103477 9.67865434,6.22970716 C9.65924055,6.23923757 9.65482833,6.25335668 9.66541767,6.27206451 L10.850894,8.39310879 C10.8553272,8.40119836 10.8651581,8.40462773 10.8736611,8.40105079 C14.1145278,6.96037144 17.666721,9.0432941 18.0463487,12.529304 C18.0481136,12.5455409 18.0571145,12.5534829 18.0733515,12.5531412 L20.494074,12.5171262 C20.5166646,12.5167732 20.526901,12.5054779 20.5247831,12.4832403 Z M8.82621268,6.75123203 C8.82254977,6.74505805 8.81654222,6.74064322 8.80961939,6.73903792 C8.80269656,6.73743263 8.79547738,6.7387804 8.78967947,6.74276056 C7.29093526,7.77063224 6.2770062,9.1551881 5.74789231,10.8964281 C5.72847853,10.9610231 5.71206506,11.0256181 5.6986519,11.090213 C5.69512212,11.1071559 5.70006381,11.1212751 5.71347697,11.1325704 C6.88995235,12.129027 6.87406834,13.8783855 5.70553497,14.8748422 C5.69388669,14.8850785 5.69000394,14.8976093 5.69388669,14.9124343 C6.19899809,16.7373301 7.2311055,18.1863045 8.79020894,19.2593573 C8.79554429,19.2630436 8.80217469,19.2643391 8.80850521,19.2629324 C8.81483573,19.2615256 8.82029339,19.2575438 8.82356535,19.2519448 L10.0768134,17.155256 C10.0804553,17.1495634 10.0788268,17.1418863 10.0731072,17.1377836 C8.41640533,15.9385411 7.61108622,13.9403332 8.03995438,11.9511261 C8.31351227,10.6839354 8.98964146,9.65500482 10.068342,8.8643343 C10.0764152,8.85830569 10.0787054,8.8473128 10.0736366,8.83891989 L8.82621268,6.75123203 Z M5.8839653,12.9994705 C5.8839653,12.0403445 5.10644002,11.2628192 4.14731397,11.2628192 C3.18818793,11.2628192 2.41066265,12.0403445 2.41066265,12.9994705 C2.41066265,13.9585966 3.18818793,14.7361219 4.14731397,14.7361219 C5.10644002,14.7361219 5.8839653,13.9585966 5.8839653,12.9994705 L5.8839653,12.9994705 Z M18.0664685,13.446861 C18.0547666,13.4465385 18.0448116,13.455336 18.0437014,13.4669898 C17.6931943,16.9561764 14.0726999,19.0475706 10.8720727,17.5968313 C10.8652274,17.593467 10.8568391,17.5962631 10.8530119,17.6031849 L9.6617114,19.7342891 C9.65860262,19.739791 9.65792052,19.7463376 9.65982832,19.7523622 C9.66173612,19.7583869 9.66606216,19.7633475 9.67177127,19.7660571 C11.3604176,20.5772003 13.127778,20.7471592 14.9738525,20.2759337 C14.9943252,20.270639 15.0068559,20.2575788 15.0114446,20.2367531 C15.2257022,19.280183 15.7680528,18.6481761 16.6384963,18.3407323 C17.1354892,18.1653023 17.6755454,18.1732443 18.2586649,18.3645583 C18.2763138,18.3702059 18.2916684,18.3664997 18.3047285,18.3534395 C19.6298076,17.0142413 20.3703553,15.3991909 20.5264655,13.5082882 C20.526958,13.5018505 20.5247822,13.4954577 20.5203646,13.4906384 C20.5159469,13.4858191 20.5096845,13.4830068 20.503075,13.4828738 L18.0664685,13.446861 Z M19.1481693,20.6481489 C19.1481693,19.6893153 18.370881,18.912027 17.4120474,18.912027 C16.4532138,18.912027 15.6759255,19.6893153 15.6759255,20.6481489 C15.6759255,21.6069825 16.4532138,22.3842708 17.4120474,22.3842708 C18.370881,22.3842708 19.1481693,21.6069825 19.1481693,20.6481489 L19.1481693,20.6481489 Z"></path>
                    </g>
                </g>
            </g>
        </g>
    </g>
</svg>