<?xml version="1.0" encoding="UTF-8"?>
<svg width="66px" height="52px" viewBox="0 0 66 52" version="1.1" xmlns="http://www.w3.org/2000/svg" xmlns:xlink="http://www.w3.org/1999/xlink">
    <title>个人</title>
    <defs>
        <linearGradient x1="50%" y1="0%" x2="50%" y2="100%" id="linearGradient-1">
            <stop stop-color="#E5EBFE" offset="0%"></stop>
            <stop stop-color="#D7E2FE" offset="100%"></stop>
        </linearGradient>
    </defs>
    <g id="页面-1" stroke="none" stroke-width="1" fill="none" fill-rule="evenodd">
        <g id="控制台-账号信息-实名认证" transform="translate(-294.000000, -176.000000)">
            <g id="编组-7" transform="translate(294.000000, 176.000000)">
                <rect id="矩形" fill="url(#linearGradient-1)" x="0" y="0" width="61.6956522" height="44.1643836" rx="8"></rect>
                <rect id="矩形" fill="#FFFFFF" x="32.2826087" y="12.109589" width="15.7826087" height="3.56164384" rx="1.78082192"></rect>
                <rect id="矩形备份" fill="#FFFFFF" x="32.2826087" y="20.6575342" width="20.0869565" height="3.56164384" rx="1.78082192"></rect>
                <g id="编组" transform="translate(40.891304, 23.506849)">
                    <g fill="#4A71FF" id="Fill-1">
                        <path d="M10.8496444,0.31755337 L1.42084947,3.95748293 C0.564021415,4.28852713 0,5.10316568 0,6.00964564 L0,6.00964564 L0,16.0250299 C0,17.2407612 0.239616941,18.4502659 0.756241599,19.5544384 L0.756241599,19.5544384 C4.80076491,28.1994657 12.5543478,28.4931507 12.5543478,28.4931507 L12.5543478,28.4931507 C12.5543478,28.4931507 20.3079307,28.1994657 24.3524541,19.5544384 L24.3524541,19.5544384 C24.8690787,18.4502659 25.1086957,17.2407612 25.1086957,16.0250299 L25.1086957,16.0250299 L25.1086957,6.00964564 C25.1086957,5.10316568 24.5446742,4.28852713 23.6878462,3.95748293 L23.6878462,3.95748293 L14.2590512,0.31755337 C13.7108287,0.105851123 13.1325883,0 12.5543478,0 L12.5543478,0 C11.9761074,0 11.3973403,0.105851123 10.8496444,0.31755337"></path>
                    </g>
                    <path d="M11.1173353,15.0132103 L8.72218918,13.2877857 C8.31400976,12.9940184 7.74721139,13.0568563 7.41516906,13.4328365 L7.41516906,13.4328365 C7.07519579,13.8177188 7.09687371,14.3984459 7.4653984,14.7571458 L11.0459567,18.2420322 C11.4335157,18.6195834 12.0568882,18.6122523 12.4354587,18.2263227 L19.8503657,10.6669206 C20.1734197,10.3375452 20.1644313,9.8112776 19.8308027,9.49237514 L19.8308027,9.49237514 C19.5183234,9.19389501 19.0271334,9.18185107 18.6998496,9.46462172 L12.337115,14.9597981 C11.9929119,15.2572309 11.4869174,15.2792242 11.1173353,15.0132103" id="Fill-3" fill="#FFFFFF"></path>
                </g>
                <g id="个人" transform="translate(5.739130, 10.684932)" fill="#FFFFFF" fill-rule="nonzero">
                    <path d="M19.6278299,14.5525323 C18.1335362,13.9957196 16.5679442,13.5839102 14.9488785,13.3287044 C14.6518022,13.2620029 14.4260242,13.003897 14.4260242,12.6935899 C14.4260242,12.5311862 14.4884102,12.3803827 14.5894162,12.2672801 C14.5864454,12.2730803 14.5775331,12.2730803 14.5715916,12.2788804 C15.0350306,11.7423682 15.4360836,11.121754 15.7628675,10.4489386 C16.1758035,10.2749346 16.5798273,9.92982676 16.870962,9.45131584 C17.4205531,8.54649517 17.3522256,7.53437206 16.7164824,7.18636411 C16.695687,7.17476385 16.6748917,7.17186378 16.6540963,7.16316358 C16.6570671,7.13126285 16.6570671,7.09646206 16.6570671,7.06456133 L16.6867747,7.06456133 L16.6867747,4.34429921 C16.6867747,2.54335808 15.1895103,1.0817247 13.3476373,1.0817247 C13.3357543,1.0817247 13.326842,1.08462477 13.3149589,1.08462477 C12.4920576,0.406009272 11.4344661,0 10.2788393,0 C7.76260324,0 5.71277689,1.91984384 5.56720952,4.33849908 L5.5523557,4.33849908 L5.5523557,7.05586113 L5.58206333,7.05586113 C5.58503409,7.08776186 5.58503409,7.12256265 5.58503409,7.15446338 C5.56423875,7.16316358 5.54344341,7.16606365 5.52264807,7.17766391 C4.88987559,7.52567186 4.82154805,8.54069504 5.36816841,9.44261564 C5.65930316,9.92112656 6.06332691,10.2662344 6.47626294,10.4402384 C6.80304685,11.1130538 7.20409983,11.733668 7.66753883,12.2701802 C7.6615973,12.2672801 7.65268501,12.2643801 7.64971425,12.2585799 C7.75072018,12.3745826 7.8131062,12.522486 7.8131062,12.6848897 C7.8131062,12.9980968 7.58732823,13.2533027 7.29025195,13.3200042 C5.67712774,13.57521 4.11747726,13.9841193 2.62615433,14.538032 C1.08432843,15.2050472 0,16.7101816 0,18.4734219 L0,19.0534351 C0,20.3526648 0.882316556,21.4430897 2.08844626,21.7997978 C4.99385229,22.4465126 8.01511808,22.7945205 11.1195652,22.7945205 C14.2210416,22.7945205 17.2363659,22.4465126 20.1388011,21.8026979 C21.3508724,21.4517899 22.2391304,20.3584649 22.2391304,19.0534351 L22.2391304,18.4821221 C22.2391304,16.7246819 21.1637143,15.2253477 19.6278299,14.5525323 Z" id="路径"></path>
                </g>
            </g>
        </g>
    </g>
</svg>