<?xml version="1.0" encoding="UTF-8"?>
<svg width="61px" height="67px" viewBox="0 0 61 67" version="1.1" xmlns="http://www.w3.org/2000/svg" xmlns:xlink="http://www.w3.org/1999/xlink">
    <title>企业1</title>
    <defs>
        <linearGradient x1="50%" y1="0%" x2="50%" y2="100%" id="linearGradient-1">
            <stop stop-color="#E4EBFE" offset="0%"></stop>
            <stop stop-color="#D7E2FE" offset="100%"></stop>
        </linearGradient>
    </defs>
    <g id="页面-1" stroke="none" stroke-width="1" fill="none" fill-rule="evenodd">
        <g id="控制台-账号信息-实名认证" transform="translate(-299.000000, -341.000000)">
            <g id="编组-11" transform="translate(299.000000, 341.000000)">
                <g id="企业用户" fill-rule="nonzero">
                    <path d="M53.9680224,60 L32.8739522,60 L32.8739522,10.8320724 L54.4930146,18.3310657 C55.991307,18.8557594 57,20.2647683 57,21.8565358 L57,56.9697464 C57,58.64405 55.6432785,60 53.9680224,60 Z" id="路径" fill="#C9D8FE"></path>
                    <path d="M40.8727103,60 L5.23812481,60 C2.34181931,60 0,58.1783106 0,55.9262544 L0,12.3825718 C0,9.47022691 2.58366967,6.94108531 6.22912139,6.27490116 L40.5895685,0.0257400925 C41.3682086,-0.115750347 42.1114561,0.344093581 42.1114561,0.963114252 L42.1114561,59.0390441 C42.1114561,59.5696332 41.5569699,60 40.8727103,60 L40.8727103,60 Z" id="路径" fill="url(#linearGradient-1)"></path>
                    <path d="M21.2887302,33.2936796 L20.8168271,33.2936796 C17.8851288,33.2936796 15.5079168,30.9178193 15.5079168,27.9877881 L15.5079168,27.5161533 C15.5079168,24.5861222 17.8851288,22.2102619 20.8168271,22.2102619 L21.2887302,22.2102619 C24.2204284,22.2102619 26.5976405,24.5861222 26.5976405,27.5161533 L26.5976405,27.9877881 C26.5976405,30.9178193 24.2204284,33.2936796 21.2887302,33.2936796 Z M27.6771189,47.6785409 L14.4343372,47.6785409 C13.1366035,47.6785409 12.1927973,46.4581859 12.5113319,45.2024582 L13.9801304,39.4603046 C14.5700093,37.1492941 16.6522819,35.5339449 19.0412915,35.5339449 L23.0819621,35.5339449 C25.4709717,35.5339449 27.5532443,37.1492941 28.1431233,39.4603046 L29.6119218,45.2024582 C29.9186588,46.4581859 28.9689537,47.6785409 27.6771189,47.6785409 L27.6771189,47.6785409 Z" id="形状" fill="#FFFFFF"></path>
                    <path d="M52.1334989,28.9900121 L46.2347097,28.9900121 C45.2437131,28.9900121 44.435579,28.1823375 44.435579,27.1919044 C44.435579,26.2014713 45.2437131,25.3937968 46.2347097,25.3937968 L52.1334989,25.3937968 C53.1244955,25.3937968 53.9326296,26.2014713 53.9326296,27.1919044 C53.9326296,28.1823375 53.1244955,28.9900121 52.1334989,28.9900121 Z M52.1334989,36.7719862 L49.9509469,36.7719862 C48.9599503,36.7719862 48.1518162,35.9643116 48.1518162,34.9738786 C48.1518162,33.9834455 48.9599503,33.1757709 49.9509469,33.1757709 L52.1334989,33.1757709 C53.1244955,33.1757709 53.9326296,33.9834455 53.9326296,34.9738786 C53.9326296,35.9643116 53.1244955,36.7719862 52.1334989,36.7719862 Z" id="形状" fill="#FFFFFF"></path>
                </g>
                <g id="编组" transform="translate(35.891304, 37.506849)">
                    <g fill="#4A71FF" id="Fill-1">
                        <path d="M10.8496444,0.31755337 L1.42084947,3.95748293 C0.564021415,4.28852713 0,5.10316568 0,6.00964564 L0,6.00964564 L0,16.0250299 C0,17.2407612 0.239616941,18.4502659 0.756241599,19.5544384 L0.756241599,19.5544384 C4.80076491,28.1994657 12.5543478,28.4931507 12.5543478,28.4931507 L12.5543478,28.4931507 C12.5543478,28.4931507 20.3079307,28.1994657 24.3524541,19.5544384 L24.3524541,19.5544384 C24.8690787,18.4502659 25.1086957,17.2407612 25.1086957,16.0250299 L25.1086957,16.0250299 L25.1086957,6.00964564 C25.1086957,5.10316568 24.5446742,4.28852713 23.6878462,3.95748293 L23.6878462,3.95748293 L14.2590512,0.31755337 C13.7108287,0.105851123 13.1325883,0 12.5543478,0 L12.5543478,0 C11.9761074,0 11.3973403,0.105851123 10.8496444,0.31755337"></path>
                    </g>
                    <path d="M11.1173353,15.0132103 L8.72218918,13.2877857 C8.31400976,12.9940184 7.74721139,13.0568563 7.41516906,13.4328365 L7.41516906,13.4328365 C7.07519579,13.8177188 7.09687371,14.3984459 7.4653984,14.7571458 L11.0459567,18.2420322 C11.4335157,18.6195834 12.0568882,18.6122523 12.4354587,18.2263227 L19.8503657,10.6669206 C20.1734197,10.3375452 20.1644313,9.8112776 19.8308027,9.49237514 L19.8308027,9.49237514 C19.5183234,9.19389501 19.0271334,9.18185107 18.6998496,9.46462172 L12.337115,14.9597981 C11.9929119,15.2572309 11.4869174,15.2792242 11.1173353,15.0132103" id="Fill-3" fill="#FFFFFF"></path>
                </g>
            </g>
        </g>
    </g>
</svg>