<?xml version="1.0" encoding="UTF-8"?>
<svg width="40px" height="40px" viewBox="0 0 40 40" version="1.1" xmlns="http://www.w3.org/2000/svg" xmlns:xlink="http://www.w3.org/1999/xlink">
    <title>公众号 (1)</title>
    <g id="页面-1" stroke="none" stroke-width="1" fill="none" fill-rule="evenodd">
        <g id="数据集" transform="translate(-1836.000000, -416.000000)" fill="#000000" fill-rule="nonzero">
            <g id="编组-9" transform="translate(1816.000000, 404.000000)">
                <g id="公众号-(1)" transform="translate(20.000000, 12.000000)">
                    <g id="编组-5" transform="translate(0.000000, 3.000000)">
                        <path d="M19.4866093,10.5816038 C18.3131153,10.5816038 17.0350936,9.76429332 17.014105,8.46528301 C17.014105,7.1662727 18.2923345,6.34896226 19.4866093,6.34896226 C20.7434346,6.34896226 21.6025145,7.22903083 21.6025145,8.46528301 C21.6025145,9.72252383 20.7226537,10.5816038 19.4866093,10.5816038 Z M10.0994883,10.5816038 C8.90521339,10.5816038 7.62719173,9.76429332 7.62719173,8.46528301 C7.62719173,7.1662727 8.90521339,6.34896226 10.0994883,6.34896226 C11.3357404,6.34896226 12.215809,7.22903083 12.215809,8.46528301 C12.215809,9.72252383 11.3357404,10.5816038 10.0994883,10.5816038 Z" id="形状"></path>
                        <path d="M35.2432657,33.0016365 C35.0755643,33.0016365 34.8868743,32.9594514 34.7403694,32.8757046 L31.4295659,31.0530171 C30.1305556,31.3674312 28.8527418,31.6606489 27.553108,31.6606489 C22.4406058,31.6606489 17.8729771,28.957685 15.9871159,24.871964 C15.9243577,24.8929527 15.8613918,24.8929527 15.8196223,24.8929527 C15.3738471,24.9347829 14.9263681,24.9558636 14.4786347,24.9561265 C12.9699457,24.9561265 11.7546822,24.7046783 10.3507286,24.4112528 L9.93157908,24.3277138 L5.5732135,26.5065849 C5.42670857,26.5903317 5.2590072,26.6115282 5.09130582,26.6115282 C4.84006546,26.6115282 4.58840949,26.5279892 4.39992727,26.36008 C4.08572097,26.0874354 3.95978907,25.626932 4.08572097,25.2287711 L5.17526041,21.9177598 C1.7811258,19.3401044 0,16.0712783 0,12.4672572 C0,5.59461776 6.49546718,0 14.4576461,0 C21.4562174,0 27.6792477,4.35836559 28.9994545,10.1414656 C35.201704,10.7908668 40,15.4216692 40,20.8485856 C40,23.6982622 38.3865756,26.5685118 35.4741408,28.9574772 L36.2704626,31.6186716 C36.3959789,32.0380289 36.249474,32.4779593 35.9144868,32.7501883 C35.7251734,32.9178897 35.4737252,33.0016365 35.2432657,33.0016365 Z M31.5554978,28.8737304 C31.723407,28.8737304 31.9118892,28.9157077 32.0583942,28.9994545 L33.4833364,29.7745798 L33.2106917,28.8945113 C33.0849274,28.4693822 33.2348527,28.010758 33.5874484,27.7420059 C36.353586,25.6678702 37.8618594,23.2371354 37.8618594,20.8695743 C37.8618594,16.1760137 33.1265293,12.1948204 27.5319116,12.1948204 C21.8325584,12.1948204 17.1809751,16.0920591 17.1809751,20.8695743 C17.1809751,25.6470894 21.8325584,29.5441203 27.5319116,29.5441203 C28.7679559,29.5441203 30.046601,29.2294984 31.3034262,28.9157077 C31.3880043,28.8945113 31.471751,28.8737304 31.5554978,28.8737304 L31.5554978,28.8737304 Z M14.4576461,2.1373094 C7.64776476,2.1373094 2.0953321,6.78889264 2.0953321,12.4882458 C2.0953321,15.6523365 3.75052602,18.3972777 7.01935216,20.681092 C7.3963166,20.9535288 7.56401798,21.4356443 7.41751305,21.8753669 L6.87284723,23.4889991 L9.28259345,22.2735278 C9.42909837,22.2107697 9.59679975,22.1685846 9.74351248,22.1685846 C9.80627062,22.1685846 9.8900174,22.1685846 9.95298335,22.189781 L10.7073278,22.3362859 C12.0063382,22.6091384 13.1168662,22.8395979 14.437073,22.8395979 C14.7095098,22.8395979 15.0029353,22.8395979 15.2751643,22.8179858 C15.1284516,22.1685846 15.0656934,21.4979869 15.0656934,20.8695743 C15.0656934,15.1702211 20.2621503,10.4558797 26.7786061,10.0996961 C25.4372029,5.53185963 20.2409538,2.1373094 14.4576461,2.1373094 Z" id="形状"></path>
                        <path d="M23.8445593,19.6541029 C22.9229291,19.6541029 22.0638491,18.7948152 22.0638491,17.8731849 C22.0638491,16.9515547 22.9231369,16.0922669 23.8445593,16.0922669 C25.1439852,16.0922669 25.9610879,17.0145206 25.9610879,17.8731849 C25.9608801,18.9629322 24.8717562,19.6541029 23.8445593,19.6541029 L23.8445593,19.6541029 Z M31.2203029,19.6541029 C30.2980492,19.6541029 29.4398005,18.7948152 29.4398005,17.8731849 C29.4398005,16.9515547 30.2986726,16.0922669 31.2203029,16.0922669 C32.5407175,16.0922669 33.3576123,17.0145206 33.3576123,17.8731849 C33.3366236,18.7324727 32.519521,19.6541029 31.2203029,19.6541029 L31.2203029,19.6541029 Z" id="形状"></path>
                    </g>
                </g>
            </g>
        </g>
    </g>
</svg>