<?xml version="1.0" encoding="UTF-8"?>
<svg width="20px" height="20px" viewBox="0 0 20 20" version="1.1" xmlns="http://www.w3.org/2000/svg" xmlns:xlink="http://www.w3.org/1999/xlink">
    <title>服务</title>
    <g id="页面-1" stroke="none" stroke-width="1" fill="none" fill-rule="evenodd">
        <g id="控制台-导航" transform="translate(-292.000000, -719.000000)" fill-rule="nonzero">
            <g id="编组-5备份-15" transform="translate(245.000000, 706.000000)">
                <g id="服务-(1)" transform="translate(47.000000, 13.000000)">
                    <path d="M18.7955864,4.18450325 L18.7724676,4.18450325 C18.7031112,4.17294385 18.6453142,4.17294385 18.5759578,4.17294385 C17.9518657,4.17294385 17.4316927,4.54284469 17.2119485,5.14393356 L16.0791271,8.65799154 C15.8940611,8.58863513 15.6976669,8.55395693 15.4894821,8.55395693 C15.1658188,8.55395693 14.8421556,8.63487274 14.518608,8.80826375 L10.831159,10.773362 C10.5190551,10.9351936 10.2531889,11.177941 10.0335603,11.478601 C9.81393166,11.177941 9.53650603,10.9353092 9.2359616,10.773362 L5.5369532,8.79670435 C5.21328996,8.62331333 4.88962673,8.54239753 4.56596349,8.54239753 C4.35789427,8.54239753 4.16138445,8.57707573 3.97643403,8.64643214 L2.84361271,5.13237416 C2.63554349,4.53128529 2.11537043,4.16138445 1.47960336,4.16138445 C1.41024695,4.16138445 1.35244995,4.16138445 1.28309354,4.17294385 L1.25997474,4.17294385 C0.658885871,4.27697846 0.0115594013,4.84338912 0,5.84905703 L0,5.86061643 L0.161831618,10.2300701 C0.161831618,10.900631 0.381460241,11.6056389 0.809158088,12.2992029 C1.04034611,12.6691038 1.32933114,12.9812076 1.60675677,13.281752 L1.61831618,13.2933114 L3.86084002,15.4549195 C4.27697846,15.8594985 4.68155751,16.2293994 4.94742374,16.6686566 L6.73913093,19.5854403 C6.86628434,19.7935095 7.08591297,19.9205474 7.31710099,19.9205474 C7.44425441,19.9205474 7.57140782,19.8858692 7.68700183,19.8166283 C8.02222447,19.6084435 8.11469968,19.2038645 7.90663046,18.8687574 L6.08024506,15.8826173 C5.73346302,15.3162067 5.27108697,14.86539 4.79715152,14.403014 L2.57774648,12.2529653 C1.91886061,11.594195 1.53740037,10.8080402 1.51428156,10.1144761 L1.35244995,5.74502242 C1.35244995,5.66410661 1.36400935,5.5253938 1.47960336,5.502275 L1.49116276,5.502275 C1.49116276,5.5138344 1.50272216,5.5138344 1.50272216,5.5253938 L2.7742563,9.50182783 L2.84361271,9.81393166 C2.91296912,10.2763077 3.02856313,10.7849214 3.6990084,11.409129 C3.79148361,11.536398 3.91863702,11.6287577 3.98799343,11.6749953 L5.28264637,12.703782 C5.44447799,12.8424948 5.60630961,12.8656136 5.72190362,12.8656136 C5.91841344,12.8656136 6.10336386,12.7730228 6.23051727,12.6113068 C6.4848241,12.3106467 6.4501459,11.9060677 6.14960147,11.6634359 L4.82027032,10.6115303 C4.40413188,10.2877515 4.33477547,10.0335603 4.34633487,9.96408828 C4.38101307,9.92941008 4.45036948,9.90629128 4.51972589,9.90629128 C4.6122011,9.90629128 4.73935451,9.94096948 4.84338912,9.99876649 L8.53083812,11.9638647 C8.99321417,12.2412903 9.2590804,12.9812076 9.247521,13.5475027 L9.29375861,15.7206701 L9.29375861,15.7323451 C9.30531801,15.8710579 9.36311501,15.9982113 9.45559022,16.1022459 C9.55962484,16.2293994 9.70989705,16.321759 9.87172867,16.3564372 L9.97576328,16.379556 L9.99888208,16.379556 L10.1029167,16.3564372 C10.2647483,16.321759 10.4150205,16.2292838 10.5190551,16.1022459 C10.6116459,15.9982113 10.6694429,15.8593829 10.6808868,15.7323451 L10.6808868,15.7207857 L10.7271244,13.5476183 C10.7271244,12.9813232 10.9929906,12.2414059 11.4436916,11.9639803 L15.1196968,9.99888208 C15.2468503,9.94108508 15.3624443,9.90640687 15.4548039,9.90640687 C15.5242759,9.90640687 15.5935167,9.92952568 15.6281949,9.96420388 C15.6281949,10.0335603 15.5703979,10.2763077 15.1542594,10.6116459 L13.8249283,11.6635515 C13.5242683,11.9178583 13.4897057,12.3108779 13.7440125,12.6114224 C13.8827253,12.7731384 14.0676757,12.8657292 14.2526261,12.8657292 C14.3565452,12.8657292 14.5184924,12.8426104 14.6918834,12.7038976 L15.9865363,11.6751109 C16.0558927,11.6289888 16.1829306,11.5365136 16.2755214,11.4092446 C16.9342916,10.7851526 17.0615607,10.2764233 17.1308015,9.81404726 L17.2002735,9.50194342 L18.4718076,5.53706879 C18.483367,5.51394999 18.483367,5.50239059 18.4948108,5.50239059 L18.5179296,5.50239059 C18.6219642,5.51394999 18.6335236,5.65266281 18.6335236,5.74513802 L18.4718076,10.1145917 C18.4486888,10.8081558 18.0672286,11.5826356 17.4197865,12.2415215 L15.2003815,14.3915702 C14.7151178,14.8422712 14.2643011,15.3046473 13.9059597,15.8710579 L12.1451161,18.8686419 C11.9370469,19.2038645 12.0410815,19.6084435 12.3763041,19.8165128 C12.4918982,19.8859848 12.6190516,19.9205474 12.746205,19.9205474 C12.977393,19.9205474 13.196906,19.7932784 13.324175,19.5853247 L15.0503404,16.6570972 C15.3162067,16.21784 15.7207857,15.8479391 16.1369241,15.4433601 L18.3678886,13.2933114 L18.3910074,13.2703082 C18.6683174,12.9696482 18.9573025,12.6575444 19.1884905,12.2877591 C19.6047445,11.6056389 19.8359325,10.888956 19.8359325,10.2185107 L19.9976486,5.84905703 L19.9976486,5.82593823 C20.0440018,4.86650793 19.3966753,4.28853786 18.7955864,4.18450325 Z" id="路径" fill="#FFFFFF"></path>
                    <path d="M10.0505526,10.1376147 C9.93045043,10.1376147 9.81959577,10.1046506 9.70168988,10.0340227 C9.48830333,9.90455737 4.46216007,6.82120268 4.42910018,3.50943422 C4.42910018,1.57485283 5.69635734,0 7.68041297,0 C8.33687137,0 9.31572147,0.864643214 9.85508313,1.18819085 L10.0310172,1.29372819 L10.2081072,1.19038714 C10.773362,0.860713017 11.7364913,0 12.3867076,0 C14.3706476,0 15.6379048,1.57589317 15.6379048,3.51290204 C15.6379048,6.81865961 10.6117615,9.90513534 10.397797,10.0348318 C10.2948206,10.1028061 10.1739369,10.1385803 10.0505526,10.1376147 L10.0505526,10.1376147 Z M7.69740529,1.34678584 C6.4655199,1.34678584 5.80998626,2.31846911 5.80998626,3.51290204 C5.80998626,5.16254419 7.98858661,7.24427676 9.85415838,8.52575199 L10.0505526,8.6606502 L10.2469468,8.52575199 C12.1126342,7.24439236 14.291119,5.16265979 14.291119,3.51290204 C14.291119,2.31846911 13.6280717,1.34678584 12.3867076,1.34678584 C11.8198346,1.34678584 10.9253681,2.25338968 10.4979014,2.64005165 C10.3749094,2.75737957 10.2202446,2.81829762 10.0482407,2.81829762 C9.87777923,2.81901382 9.71324608,2.7557826 9.58713621,2.641092 C9.15886039,2.25362087 8.26416274,1.34678584 7.69740529,1.34678584 L7.69740529,1.34678584 Z" id="形状" fill="#C5CEFF"></path>
                </g>
            </g>
        </g>
    </g>
</svg>